HIERARCHY
ROOT hip
{
	OFFSET 0.000000 0.000000 0.000000
	CHANNELS 6 Xposition Yposition Zposition Xrotation Zrotation Yrotation 
	JOINT abdomen
	{
		OFFSET 0.000000 3.422050 0.000000
		CHANNELS 3 Xrotation Zrotation Yrotation 
		JOINT chest
		{
			OFFSET 0.000000 8.486693 -0.684411
			CHANNELS 3 Xrotation Zrotation Yrotation 
			JOINT neck
			{
				OFFSET 0.000000 10.266162 -0.273764
				CHANNELS 3 Xrotation Zrotation Yrotation 
				JOINT head
				{
					OFFSET 0.000000 3.148285 0.000000
					CHANNELS 3 Xrotation Zrotation Yrotation 
					End Site
					{
						OFFSET 0.000000 3.148289 0.000000
					}
				}
			}
			JOINT lCollar
			{
				OFFSET 3.422053 6.707223 -0.821293
				CHANNELS 3 Yrotation Zrotation Xrotation 
				JOINT lShldr
				{
					OFFSET 3.285171 0.000000 0.000000
					CHANNELS 3 Zrotation Yrotation Xrotation 
					JOINT lForeArm
					{
						OFFSET 10.129278 0.000000 0.000000
						CHANNELS 3 Yrotation Zrotation Xrotation 
						JOINT lHand
						{
							OFFSET 8.486692 0.000000 0.000000
							CHANNELS 3 Zrotation Yrotation Xrotation 
							End Site
							{
								OFFSET 4.106464 0.000000 0.000000
							}
						}
					}
				}
			}
			JOINT rCollar
			{
				OFFSET -3.558935 6.707223 -0.821293
				CHANNELS 3 Yrotation Zrotation Xrotation 
				JOINT rShldr
				{
					OFFSET -3.148289 0.000000 0.000000
					CHANNELS 3 Zrotation Yrotation Xrotation 
					JOINT rForeArm
					{
						OFFSET -10.266159 0.000000 0.000000
						CHANNELS 3 Yrotation Zrotation Xrotation 
						JOINT rHand
						{
							OFFSET -8.349810 0.000000 0.000000
							CHANNELS 3 Zrotation Yrotation Xrotation 
							End Site
							{
								OFFSET -4.106464 0.000000 0.000000
							}
						}
					}
				}
			}
		}
	}
	JOINT lThigh
	{
		OFFSET 5.338403 -1.642589 1.368821
		CHANNELS 3 Xrotation Zrotation Yrotation 
		JOINT lShin
		{
			OFFSET -2.053232 -20.121670 0.000000
			CHANNELS 3 Xrotation Zrotation Yrotation 
			JOINT lFoot
			{
				OFFSET 0.000000 -19.300380 -1.231939
				CHANNELS 3 Xrotation Yrotation Zrotation 
				End Site
				{
					OFFSET 0.000000 -2.463878 4.653993
				}
			}
		}
	}
	JOINT rThigh
	{
		OFFSET -5.338403 -1.642589 1.368821
		CHANNELS 3 Xrotation Zrotation Yrotation 
		JOINT rShin
		{
			OFFSET 2.053232 -20.121670 0.000000
			CHANNELS 3 Xrotation Zrotation Yrotation 
			JOINT rFoot
			{
				OFFSET 0.000000 -19.300380 -1.231939
				CHANNELS 3 Xrotation Yrotation Zrotation 
				End Site
				{
					OFFSET 0.000000 -2.463878 4.653993
				}
			}
		}
	}
}
MOTION
Frames: 18
Frame Time: 0.049989
0.000000 43.528500 0.000000 0.000000 0.000000 0.000000 0.000000 0.000000 0.000000 0.000000 0.000000 0.000000 0.000000 0.000000 0.000000 0.000000 0.000000 0.000000 0.000000 0.000000 0.000000 0.000000 0.000000 0.000000 0.000000 0.000000 0.000000 0.000000 0.000000 0.000000 0.000000 0.000000 0.000000 0.000000 0.000000 0.000000 0.000000 0.000000 0.000000 0.000000 0.000000 0.000000 0.000000 0.000000 0.000000 0.000000 0.000000 0.000000 0.000000 0.000000 0.000000 0.000000 0.000000 0.000000 0.000000 0.000000 0.000000 0.000000 0.000000 0.000000 
0.000000 3.996296 35.999802 -90.001877 0.000000 0.000000 9.016117 -0.070231 -0.021323 0.172961 -0.504192 -0.761402 42.996880 0.000000 0.000000 -22.000595 0.000000 0.000000 15.090791 -24.295185 -3.744622 -64.116554 -42.543713 9.267867 -102.268562 -13.855605 -20.992636 -38.414455 24.256983 8.384653 -6.069874 16.524351 -6.545290 64.088913 26.788355 10.133011 85.289658 -0.550073 -22.217888 39.847855 9.127784 18.023283 -0.627689 16.935823 -6.409651 9.440266 1.863326 -0.318162 14.531325 9.139903 1.500795 -16.081913 -6.372943 7.127976 40.320011 1.413052 0.215170 19.877609 -8.481436 0.504497 
0.000000 3.996296 35.999802 -90.001877 0.000000 0.000000 9.016117 -0.070231 -0.021323 0.172961 -0.504192 -0.761402 43.385605 0.000000 0.000000 -23.271330 0.000000 0.000000 15.090791 -24.295183 -3.744621 -64.116554 -42.543713 9.267865 -102.035286 -13.693014 -20.939905 -39.190613 24.256876 8.384696 -6.069874 16.524351 -6.545290 64.088913 26.788355 10.133010 84.606926 -0.419356 -22.228010 40.204060 9.111105 18.077042 -0.683328 17.038574 -5.684162 9.440266 1.863326 -0.318162 14.378119 8.429673 1.734270 -16.060171 -6.652754 6.613114 40.320011 1.413052 0.215170 19.801023 -8.012084 0.101059 
0.000000 3.996296 35.999802 -90.001884 0.000000 0.000000 9.016117 -0.070231 -0.021323 0.172961 -0.504192 -0.761402 43.774403 0.000000 0.000000 -24.544600 0.000000 0.000000 15.090791 -24.295187 -3.744623 -64.116562 -42.543713 9.267868 -101.802284 -13.530201 -20.887882 -39.967342 24.256769 8.384739 -6.069875 16.524351 -6.545290 64.088913 26.788355 10.133011 83.923820 -0.288449 -22.236574 40.560261 9.094091 18.130692 -0.737668 17.142059 -4.957874 9.440268 1.863326 -0.318162 14.228005 7.718340 1.965579 -16.035873 -6.932476 6.097631 40.320015 1.413052 0.215170 19.727831 -7.541995 -0.301481 
0.000000 3.996296 35.999802 -90.001877 0.000000 0.000000 9.016117 -0.070231 -0.021323 0.172961 -0.504192 -0.761402 44.163261 0.000000 0.000000 -25.820080 0.000000 0.000000 15.090791 -24.295185 -3.744622 -64.116554 -42.543713 9.267867 -101.569580 -13.367167 -20.836569 -40.744572 24.256662 8.384786 -6.069874 16.524351 -6.545290 64.088921 26.788355 10.133012 83.240387 -0.157382 -22.243584 40.916485 9.076748 18.184242 -0.790692 17.246258 -4.230844 9.440266 1.863326 -0.318162 14.080938 7.005980 2.194778 -16.009016 -7.212071 5.581527 40.320011 1.413052 0.215170 19.658016 -7.071217 -0.703155 
0.000000 3.996296 35.999802 -90.001877 0.000000 0.000000 9.016117 -0.070231 -0.021323 0.172961 -0.504192 -0.761402 44.552158 0.000000 0.000000 -27.097483 0.000000 0.000000 15.090791 -24.295185 -3.744622 -64.116554 -42.543709 9.267868 -101.337158 -13.203918 -20.785965 -41.522224 24.256550 8.384830 -6.069874 16.524351 -6.545290 64.088913 26.788355 10.133011 82.556664 -0.026183 -22.249025 41.272732 9.059075 18.237690 -0.842384 17.351152 -3.503127 9.440265 1.863326 -0.318162 13.936874 6.292670 2.421923 -15.979595 -7.491504 5.064807 40.320007 1.413052 0.215170 19.591574 -6.599801 -1.103994 
0.000000 3.996296 35.999802 -90.001877 0.000000 0.000000 9.016117 -0.070231 -0.021323 0.172961 -0.504192 -0.761402 44.941113 0.000000 0.000000 -28.376474 0.000000 0.000000 15.090791 -24.295185 -3.744622 -64.116554 -42.543713 9.267867 -101.105034 -13.040468 -20.736078 -42.300236 24.256443 8.384879 -6.069875 16.524351 -6.545290 64.088921 26.788355 10.133011 81.872719 0.105120 -22.252909 41.628960 9.041070 18.291021 -0.892725 17.456699 -2.774774 9.440266 1.863326 -0.318162 13.795779 5.578487 2.647069 -15.947607 -7.770735 4.547468 40.320011 1.413052 0.215170 19.528486 -6.127797 -1.504032 
0.000000 3.996296 35.999802 -90.001862 0.000000 0.000000 9.016117 -0.070231 -0.021323 0.172961 -0.504192 -0.761402 45.330105 0.000000 0.000000 -29.656740 0.000000 0.000000 15.090791 -24.295185 -3.744622 -64.116554 -42.543713 9.267867 -100.873184 -12.876808 -20.686897 -43.078548 24.256342 8.384931 -6.069874 16.524351 -6.545290 64.088913 26.788355 10.133011 81.188560 0.236500 -22.255222 41.985180 9.022738 18.344240 -0.941702 17.562895 -2.045843 9.440266 1.863326 -0.318162 13.657617 4.863513 2.870271 -15.913038 -8.049724 4.029513 40.320007 1.413052 0.215170 19.468756 -5.655259 -1.903301 
0.000000 3.996296 35.999802 -90.001877 0.000000 0.000000 9.016117 -0.070231 -0.021323 0.172961 -0.504192 -0.761402 45.719120 0.000000 0.000000 -30.937975 0.000000 0.000000 15.090789 -24.295183 -3.744622 -64.116554 -42.543713 9.267867 -100.641640 -12.712955 -20.638428 -43.857063 24.256231 8.384982 -6.069874 16.524351 -6.545290 64.088905 26.788353 10.133009 80.504250 0.367925 -22.255968 42.341400 9.004081 18.397350 -0.989298 17.669701 -1.316389 9.440266 1.863326 -0.318162 13.522346 4.147820 3.091583 -15.875892 -8.328436 3.510944 40.320011 1.413052 0.215170 19.412369 -5.182236 -2.301831 
0.000000 3.996296 35.999802 -90.001877 0.000000 0.000000 9.016117 -0.070231 -0.021323 0.172961 -0.504192 -0.761402 46.108158 0.000000 0.000000 -32.219845 0.000000 0.000000 15.090791 -24.295183 -3.744623 -64.116554 -42.543713 9.267867 -100.410370 -12.548905 -20.590668 -44.635719 24.256126 8.385037 -6.069873 16.524351 -6.545290 64.088905 26.788353 10.133009 79.819832 0.499372 -22.255144 42.697586 8.985097 18.450336 -1.035498 17.777096 -0.586466 9.440266 1.863326 -0.318162 13.389935 3.431491 3.311056 -15.836169 -8.606834 2.991764 40.320004 1.413052 0.215170 19.359324 -4.708779 -2.699655 
0.000000 3.996296 35.999802 -90.001877 0.000000 0.000000 9.016117 -0.070231 -0.021323 0.172961 -0.504192 -0.761402 46.497196 0.000000 0.000000 -33.502045 0.000000 0.000000 15.090791 -24.295187 -3.744622 -64.116554 -42.543713 9.267867 -100.179375 -12.384670 -20.543613 -45.414459 24.256025 8.385091 -6.069874 16.524351 -6.545290 64.088921 26.788355 10.133012 79.135330 0.630808 -22.252745 43.053738 8.965784 18.503197 -1.080289 17.885052 0.143870 9.440268 1.863326 -0.318162 13.260349 2.714598 3.528743 -15.793859 -8.884876 2.471972 40.320015 1.413052 0.215170 19.309607 -4.234941 -3.096807 
0.000000 3.996296 35.999802 -90.001877 0.000000 0.000000 9.016117 -0.070231 -0.021323 0.172961 -0.504192 -0.761402 46.886246 0.000000 0.000000 -34.784237 0.000000 0.000000 15.090791 -24.295185 -3.744622 -64.116554 -42.543713 9.267867 -99.948685 -12.220250 -20.497272 -46.193184 24.255917 8.385148 -6.069874 16.524351 -6.545290 64.088913 26.788353 10.133010 78.450813 0.762206 -22.248775 43.409855 8.946148 18.555933 -1.123656 17.993536 0.874564 9.440267 1.863326 -0.318162 13.133560 1.997221 3.744696 -15.748963 -9.162531 1.951571 40.320011 1.413052 0.215170 19.263206 -3.760767 -3.493315 
0.000000 3.996296 35.999802 -90.001884 0.000000 0.000000 9.016117 -0.070231 -0.021323 0.172961 -0.504192 -0.761402 47.275280 0.000000 0.000000 -36.066101 0.000000 0.000000 15.090791 -24.295185 -3.744622 -64.116554 -42.543716 9.267865 -99.718262 -12.055650 -20.451630 -46.971840 24.255814 8.385204 -6.069874 16.524351 -6.545290 64.088921 26.788355 10.133012 77.766319 0.893537 -22.243242 43.765938 8.926193 18.608549 -1.165588 18.102537 1.605561 9.440267 1.863326 -0.318162 13.009526 1.279437 3.958962 -15.701480 -9.439754 1.430566 40.320015 1.413052 0.215170 19.220121 -3.286316 -3.889214 
0.000000 3.996296 35.999802 -90.001877 0.000000 0.000000 9.016117 -0.070231 -0.021323 0.172961 -0.504192 -0.761402 47.664303 0.000000 0.000000 -37.347343 0.000000 0.000000 15.090791 -24.295183 -3.744623 -64.116554 -42.543713 9.267867 -99.488129 -11.890877 -20.406700 -47.750374 24.255718 8.385264 -6.069874 16.524351 -6.545290 64.088913 26.788353 10.133010 77.081886 1.024776 -22.236141 44.121956 8.905910 18.661022 -1.206071 18.212013 2.336803 9.440266 1.863326 -0.318162 12.888229 0.561321 4.171597 -15.651411 -9.716513 0.908956 40.320011 1.413052 0.215170 19.180347 -2.811633 -4.284537 
0.000000 3.996296 35.999802 -90.001877 0.000000 0.000000 9.016117 -0.070231 -0.021323 0.172961 -0.504192 -0.761402 48.053288 0.000000 0.000000 -38.627609 0.000000 0.000000 15.090791 -24.295183 -3.744623 -64.116554 -42.543713 9.267867 -99.258278 -11.725934 -20.362473 -48.528664 24.255617 8.385328 -6.069874 16.524351 -6.545290 64.088905 26.788353 10.133009 76.397568 1.155889 -22.227474 44.477921 8.885309 18.713364 -1.245095 18.321945 3.068237 9.440266 1.863326 -0.318162 12.769629 -0.157049 4.382643 -15.598748 -9.992764 0.386746 40.320011 1.413052 0.215170 19.143867 -2.336770 -4.679311 
0.000000 3.996296 35.999802 -90.001862 0.000000 0.000000 9.016117 -0.070231 -0.021323 0.172961 -0.504192 -0.761402 48.442238 0.000000 0.000000 -39.906601 0.000000 0.000000 15.090791 -24.295183 -3.744623 -64.116554 -42.543713 9.267867 -99.028671 -11.560829 -20.318945 -49.306664 24.255508 8.385387 -6.069874 16.524351 -6.545290 64.088913 26.788353 10.133010 75.713371 1.286850 -22.217237 44.833824 8.864390 18.765574 -1.282650 18.432306 3.799808 9.440266 1.863326 -0.318162 12.653706 -0.875598 4.592154 -15.543499 -10.268476 -0.136063 40.320007 1.413052 0.215170 19.110689 -1.861778 -5.073574 
0.000000 3.996296 35.999802 -90.001862 0.000000 0.000000 9.016117 -0.070231 -0.021323 0.172961 -0.504192 -0.761402 48.831146 0.000000 0.000000 -41.183994 0.000000 0.000000 15.090791 -24.295183 -3.744623 -64.116554 -42.543713 9.267867 -98.799385 -11.395561 -20.276129 -50.084328 24.255413 8.385453 -6.069874 16.524351 -6.545290 64.088905 26.788351 10.133009 75.029388 1.417632 -22.205448 45.189651 8.843155 18.817640 -1.318724 18.543064 4.531457 9.440266 1.863326 -0.318162 12.540431 -1.594250 4.800177 -15.485656 -10.543607 -0.659467 40.320007 1.413052 0.215170 19.080788 -1.386707 -5.467352 
0.000000 3.996296 35.999802 -90.001877 0.000000 0.000000 9.016117 -0.070231 -0.021323 0.172961 -0.504192 -0.761402 49.220005 0.000000 0.000000 -42.459480 0.000000 0.000000 15.090791 -24.295185 -3.744622 -64.116554 -42.543713 9.267867 -98.570351 -11.230138 -20.234007 -50.861549 24.255318 8.385522 -6.069874 16.524351 -6.545290 64.088913 26.788353 10.133010 74.345657 1.548207 -22.192104 45.545391 8.821597 18.869560 -1.353308 18.654184 5.263130 9.440266 1.863326 -0.318162 12.429774 -2.312931 5.006758 -15.425226 -10.818121 -1.183464 40.320007 1.413052 0.215170 19.054169 -0.911608 -5.860681 
